<svg xmlns="http://www.w3.org/2000/svg" viewBox="0 0 865.76 682.89"><rect x="162.82" y="136.43" width="209.84" height="152.89" rx="14.21" fill="#4048ed"/><path d="M407.27,114.31s62.87-28.26,89.59-1.32c0,0,35.92,51,74.91,28.26l4-45s-23,21.52-36.83,8.82L518.54,88.9S472.76,46,407.27,114.31Z" fill="#4048ed"/><path d="M338.9,590.94l-8.51,21.91,5.47,5.26,2.63-2.19s2,11.82,11.83,16.2c0,0,5.23,2.22,8.36-4a1.68,1.68,0,0,0,0-1.6c-2-3.51-10.16-18.68-7.66-30.8Z" fill="#4dabea"/><path d="M450.54,568.92l13.35,20.6,5.1-.43.08-3.42s10.2,6.3,20,1.76c0,0,4.79-2.32,2.74-8.31a2.17,2.17,0,0,0-2-1.47A38.27,38.27,0,0,1,462.12,563Z" fill="#4dabea"/><path d="M337.18,590.51s4.82,9.42,15.11,7.66l28.65-55.6a9.69,9.69,0,0,0,1.06-3.79l3.59-52.1-35.27-4.16s7.45,36.14,12.27,51.69C362.59,534.21,342.21,562.25,337.18,590.51Z" fill="#4048ed"/><g opacity="0.3"><path d="M337.18,590.51s4.82,9.42,15.11,7.66l28.65-55.6a9.69,9.69,0,0,0,1.06-3.79l3.59-52.1-35.27-4.16s7.45,36.14,12.27,51.69C362.59,534.21,342.21,562.25,337.18,590.51Z"/></g><path d="M369.81,489.09s27.6,18.62,58.71,30.88c0,0,10.73,37.9,27.82,57.18A13.61,13.61,0,0,0,469.92,571l-28-67.46-49.07-38.12-29.57-12-20.59,4.81Z" fill="#4048ed"/><g opacity="0.2"><path d="M369.81,489.09s27.6,18.62,58.71,30.88c0,0,10.73,37.9,27.82,57.18A13.61,13.61,0,0,0,469.92,571l-28-67.46-49.07-38.12-29.57-12-20.59,4.81Z"/></g><path d="M667.41,454.53l-22.22,56.22a2,2,0,0,1-1.54,1.21c-7.91,1.19-11.48-1.42-12.84-2.93a2,2,0,0,1-.39-1.91l17.7-53.36-23.71-29.05,3.82-19.78,17.68,1.52L666.47,442A14.45,14.45,0,0,1,667.41,454.53Z" fill="#4048ed"/><path d="M543.8,517.47s1.32,5.7,13.58,7.89l48-50.57A7.48,7.48,0,0,0,607,472.2l17.42-47.49a42.68,42.68,0,0,0,3.82-19.78l-28.4-6.76L590.56,424s-4.7,23.57-6.45,37.32a5.43,5.43,0,0,1-1.5,3.11C578.3,468.87,563.43,485.18,543.8,517.47Z" fill="#4048ed"/><g opacity="0.2"><path d="M543.8,517.47s1.32,5.7,13.58,7.89l48-50.57A7.48,7.48,0,0,0,607,472.2l17.42-47.49a42.68,42.68,0,0,0,3.82-19.78l-28.4-6.76L590.56,424s-4.7,23.57-6.45,37.32a5.43,5.43,0,0,1-1.5,3.11C578.3,468.87,563.43,485.18,543.8,517.47Z"/></g><polygon points="573.81 162.22 575.35 161.75 573.62 164.12 573.81 162.22" fill="#e2bcbc"/><path d="M722.25,273.55,270.81,443.09c-26.07-15.33-20.59-53-20.59-53L701.66,230.62l-9,9.64,14,3.72L699,255.59l13.58,3.72-5.92,12.27Z" fill="#67d567"/><rect x="235.62" y="324.53" width="485.03" height="1" transform="translate(-81.06 178.21) rotate(-19.5)" fill="#fff"/><rect x="242.14" y="344.97" width="486.25" height="1" transform="translate(-90.93 194.36) rotate(-20.75)" fill="#fff"/><polygon points="784.9 226.68 758.71 246.27 722.25 273.55 706.7 271.58 712.62 259.31 699.04 255.59 706.7 243.98 692.68 240.26 701.66 230.62 748.17 228.42 784.9 226.68" fill="#da7c2e"/><path d="M425.49,210.12l8.1,13.15s10.87,5.66,15.75-4l-2.91-8S439.14,221.53,425.49,210.12Z" fill="#e2bcbc"/><path d="M425.49,210.12s10.43,15.74,23.85,9.2l-2.91-8S438.83,221.91,425.49,210.12Z" fill="#e89798"/><path d="M448.62,202.11a22.36,22.36,0,0,1,10.63,13l-2,.31a9.05,9.05,0,0,0-7.94,3.91l-2.91-8A15,15,0,0,0,448.62,202.11Z" fill="#100720"/><ellipse cx="606.6" cy="293.28" rx="13.25" ry="19.29" transform="translate(-65.62 247.44) rotate(-21.9)" fill="#e2bcbc"/><path d="M592.38,287.35a29.06,29.06,0,0,1,.71,11.74,19.58,19.58,0,0,0-5.48-6.79s-4.38-3.95,1.54-14.9c0,0,9.85-17.52,28.69-9.2,0,0,6.57,2.19,10.73,10.3,0,0-1.75-1.1-3.5-2,0,0,5.77,10.88-4.23,21a27.31,27.31,0,0,0-4-13.18s-1.46,4.9-7.15.74c0,0-1.32,2.19,2.41,3.5,0,0-4.39,3.73-7.12-2.85,0,0-4.59-9.91-5.64-3.2a6,6,0,0,0-1.78-2.16,1.32,1.32,0,0,0-2,1.13,8.52,8.52,0,0,0,1,3.58s2,2.63,0,6.57C596.59,291.64,596.93,289,592.38,287.35Z" fill="#100720"/><path d="M612.09,311.67v3.61l4.87,5.05,5.41-.55a1.86,1.86,0,0,1,1.77.88l1.37,2.3h1.42V310.18a4.14,4.14,0,0,0-.48-1.95l-5.61-10.72S621.45,309.37,612.09,311.67Z" fill="#e2bcbc"/><path d="M612.09,311.67v3.61l4.87,5.05s4.14-8.42,3.17-17.13C620.13,303.2,618.82,310.25,612.09,311.67Z" fill="#e89798"/><path d="M631.9,307.17,667,294.47s12.47,10.17,18,8.27c0,0-29.47,25-32.32,26.35l.44,50.6s3.28,36.36,4.16,46L654,420.22,648.48,349s-8.84-25.37-13.06-31.26A105.2,105.2,0,0,0,631.9,307.17Z" fill="#4dabea"/><path d="M602.05,406.05s1.1,1.19,11.17-.51a59.89,59.89,0,0,1,15-.61l17.68,1.52s-4.41-20.62-3.54-27.63c0,0,6.39-20.1,3.75-36.44,0,0-6.26-18.36-10.7-24.69L626.93,323h-7.45l-2.08,10.3a9.17,9.17,0,0,1-1.22,4.89l-1.41,26.65S616.28,374.15,602.05,406.05Z" fill="#e6e6e6"/><path d="M654,420.22l-8.07-13.77s-4.41-20.19-3.54-27.63c0,0,4.38-14.69,4.38-26.84l1.73-3Z" fill="#4dabea"/><g opacity="0.2"><path d="M654,420.22l-8.07-13.77s-4.41-20.19-3.54-27.63c0,0,4.38-14.69,4.38-26.84l1.73-3Z"/></g><g opacity="0.1"><path d="M612.58,394.59s-6.92,5.57-.48,7a9.53,9.53,0,0,0,4.25-.09L638,396.12S612.36,399.85,612.58,394.59Z"/></g><path d="M650.86,532.37c-7.88,1.56-13.74-5-13.74-5-2.85-3.51-7.89-3.94-7.89-3.94-3.72-1.54,1.58-14.36,1.58-14.36,1.36,1.51,4.93,4.12,12.84,2.93l-.84,4.2c0,4.61,5.84,11.1,8.72,14A1.3,1.3,0,0,1,650.86,532.37Z" fill="#4dabea"/><path d="M545.54,520.16l-9,16.37s.65,4.5,7.22,5.86c0,0-.62,15.09,14.85,15.8a2.86,2.86,0,0,0,2-.66h0a2.81,2.81,0,0,0,.7-3.48c-2.39-4.59-7.53-16.51-3.93-28.69C557.38,525.36,549.47,524.38,545.54,520.16Z" fill="#4dabea"/><path d="M455.09,282.88s-16.21,52.63,21.8,57c0,0,30.33,2.16,20.92,37.86,0,0,9.41,1.54,19.27-9.42,0,0,4.38-4.82,18.18-8.54,0,0,20.81-8.32,13.36-35.05,0,0-11.39-35.48,10.52-43.59A49.37,49.37,0,0,0,542,282.88a16.92,16.92,0,0,1-7.83.54,12.31,12.31,0,0,1-4.22-1.53c-1.28-.74-4.7-1.8-13.6-1.38a36.28,36.28,0,0,1-18.09-3.76c-3.34-1.69-6.48-3.89-8-6.6C490.34,270.15,479.88,280.67,455.09,282.88Z" fill="#4dabea"/><path d="M537.39,358.67s-7.6,19.27-8,52.35v21.11l12.7,9.33L558,358.62a10,10,0,0,0-3.63-9.74l-5.49-4.35A26.15,26.15,0,0,1,537.39,358.67Z" fill="#e2bcbc"/><path d="M528.69,431.61l29.47,22a2.34,2.34,0,0,1,.65,3L556.36,461a4.12,4.12,0,0,1-3.77,2.14c-13.47-.61-18.72-12.83-19.76-15.66a4.1,4.1,0,0,0-1-1.6c-3.3-3.13-5.68,6.06-5.68,6.06h-3.57S523.65,428.54,528.69,431.61Z" fill="#4048ed"/><path d="M667,294.47l25.41-9.64s-2,14.77-7.37,17.91C685,302.74,677.46,305.64,667,294.47Z" fill="#4048ed"/><path d="M638,330l8.81-22.22s-2.31-8.53,1.36-13.76c0,0,2-3.15,3.32-5.69a1,1,0,0,1,1.88.32,17.52,17.52,0,0,1-.8,7.37,114.34,114.34,0,0,0,9.57-9.21A1.67,1.67,0,0,1,665,288c-.18,3.35-1.46,8.5-6.08,15.2L655,308.38l-4.86,25.75A21.64,21.64,0,0,1,638,330Z" fill="#e2bcbc"/><rect x="570.72" y="90.11" width="3.26" height="139.48" transform="translate(13.07 -41) rotate(4.15)" fill="#100720"/><rect x="335.64" y="377.16" width="16.21" height="19.93" fill="#e2bcbc"/><path d="M351.85,377.16l-.06,15.35s-14.83-4.62-16.15-15.35Z" fill="#e89798"/><path d="M428.42,376.78S427.2,365.11,431.8,361l9.86-7s1.31,3.29-4.6,8.32c0,0-1.75,3.29,5.48.22,0,0,8.1-3.28,11.17-8.76,0,0,7.45,10.52-11.61,23.88a8,8,0,0,0-4.16,4.6l-15.12-2Z" fill="#e2bcbc"/><path d="M320.76,408.14s-26.95,37.8-14.47,41.3c0,0,11.17,6.79,28.7-13.8Z" fill="#4048ed"/><g opacity="0.2"><path d="M320.76,408.14s-26.95,37.8-14.47,41.3c0,0,11.17,6.79,28.7-13.8Z" fill="#fff"/></g><path d="M392.81,465.43s-10.73,1.54-16,5.92c0,0,5.26-28.48-1.09-50.82l5.91-.22L391.94,451S396.76,460,392.81,465.43Z" fill="#e6e6e6"/><rect x="652.16" y="470.47" width="82.14" height="182.9" fill="#ae5a15"/><rect x="570.02" y="533.12" width="82.14" height="120.25" fill="#da7c2e"/><rect x="487.88" y="576.49" width="82.14" height="76.88" fill="#f09b54"/><rect x="406.18" y="609.13" width="82.14" height="44.25" fill="#ae5a15"/><rect x="327.76" y="632.12" width="78.2" height="21.25" fill="#da7c2e"/><rect x="250.22" y="641.98" width="78.2" height="10.95" fill="#f09b54"/><g opacity="0.2"><path d="M784.9,226.68l-26.19,19.59a42,42,0,0,1-10.54-17.85Z"/></g><rect x="171.36" y="142.66" width="192.76" height="140.44" rx="11.97" fill="#fff"/><rect x="215.33" y="154.83" width="1" height="101.91" fill="#4dabea"/><rect x="248.18" y="155.27" width="1" height="101.91" fill="#4dabea"/><rect x="281.48" y="154.83" width="1" height="101.91" fill="#4dabea"/><rect x="314.99" y="155.27" width="1" height="101.91" fill="#4dabea"/><path d="M352.4,161.29c-2.59,8.2-12.16,27.27-12.16,27.27-8.32,14.9-19.05,9.2-19.05,9.2-18.62-12.7-23.88-12.7-23.88-12.7-18.62-2.85-36.27,19.44-40.06,24.58a10.89,10.89,0,0,1-3.42,3.06c-12.9,7.14-29.46-12.31-29.46-12.31-14.68-11.83-42.69,19.19-42.69,19.19l.2,37.11H352.29Z" fill="#67d567"/><rect x="260.4" y="263.2" width="92" height="1" fill="#4048ed"/><rect x="260.4" y="276.12" width="92" height="1" fill="#4048ed"/><rect x="279.68" y="269.55" width="72.72" height="1" fill="#4048ed"/><rect x="80.02" y="273.77" width="164.5" height="116.75" rx="3.9" fill="#4dabea"/><g opacity="0.2"><rect x="85.39" y="280.89" width="154.43" height="104.48" fill="#fff"/></g><rect x="92.73" y="286.26" width="31.76" height="3.94" fill="#4048ed"/><rect x="129.96" y="286.48" width="25.85" height="3.94" fill="#4048ed"/><rect x="214.95" y="286.04" width="20.15" height="46.88" fill="#4048ed"/><rect x="228.97" y="340.14" width="6.35" height="37.46" fill="#67d567"/><rect x="124.71" y="337.51" width="10.51" height="32.42" fill="#67d567"/><rect x="143.54" y="329.19" width="10.51" height="40.96" fill="#67d567"/><rect x="161.94" y="315.17" width="10.51" height="54.98" fill="#67d567"/><rect x="179.69" y="303.12" width="10.51" height="67.03" fill="#67d567"/><ellipse cx="433.08" cy="198.08" rx="13.66" ry="19.11" transform="translate(-36.41 277.89) rotate(-34.23)" fill="#e2bcbc"/><path d="M444.67,190.85c-5.31-7.65-11.59-9.51-11.59-9.51-4.75-1.41-4,2.67-3.72,3.93a5.49,5.49,0,0,1,.17.9c1.05,9.53-4.23,9.71-4.23,9.71v-1.4a2,2,0,0,0-.74-1.58c-2.84-2.2-3.27,9.72-3.27,9.72l4.2,7.5,8.79,14.27.88,35.93-2.08,9.27C427,288,419.81,290.44,414.72,289.15a12.25,12.25,0,0,1-4.3-2.1,13.84,13.84,0,0,1-2.2-2c-3.29,12.92-12.71,11.61-12.71,11.61a13,13,0,0,1-11.39-6.57c-10.07,7.88-21-1.93-21-1.93-2.71-2.39-2.93-4.57-2.38-6.24a5.16,5.16,0,0,1,4.07-3.44,33.4,33.4,0,0,0,12.11-4.82c17.09-9,6.14-30.45,6.14-30.45-7.67-17.74,11-28,11-28,5.75-4.6,5.46-12.65,5-16.38a24.23,24.23,0,0,1,.18-8c3-15.25,17.42-15.08,17.42-15.08,12-9,23.66.88,23.66.88C450.27,185.84,444.67,190.85,444.67,190.85Z" fill="#100720"/><g opacity="0.2"><path d="M422,283.72a31.86,31.86,0,0,1-7.27,5.43,12.25,12.25,0,0,1-4.3-2.1,62.08,62.08,0,0,0,7.9-4.51,11.51,11.51,0,0,0,4.89-10.7c-1.12-10.36-9.54-20.72-12.21-23.77a22.19,22.19,0,0,1-2.57-3.54c-7.16-12.39,3.89-20.24,8.22-22.72a9.51,9.51,0,0,0,4.73-9.41,25.33,25.33,0,0,0-3.11-8.74c-11.08-16.41-1.06-22.73-.86-22.86-8.1,10.52,7.06,30.52,7.06,30.52,7.12,9.55-3.3,16.22-6.57,18a11.19,11.19,0,0,0-3.2,2.56c-5.46,6.48.74,14.42.74,14.42a153.24,153.24,0,0,1,9.47,15.11A18.76,18.76,0,0,1,422,283.72Z"/></g><circle cx="421.29" cy="207.55" r="4.93" fill="#e2bcbc"/><path d="M480.06,231.62c4.34,8.67,5.37,19.25,5.62,23.81a8.71,8.71,0,0,0,1.41,4.3l5.24,8c-4.5,6.44-13.52,10.19-21.56,12.35a93.06,93.06,0,0,1-15.68,2.77L447,263.82a19.06,19.06,0,0,1-12.27,4.38,13.44,13.44,0,0,0-7.75,1.86,3.5,3.5,0,0,1-5.1-2.3c-1.95-8.6-2.63-20.67-2.84-25.7a5.77,5.77,0,0,1,1.45-4.06l13.11-14.73c11.13,4.78,14.93-2.6,14.93-2.6a9.13,9.13,0,0,1,8.76-5.26,238.7,238.7,0,0,0,32.78-7.86c3.94,5,4.79,12.95,4.93,17.56.07,2.21,0,3.66,0,3.66A27,27,0,0,1,480.06,231.62Z" fill="#4048ed"/><g opacity="0.2"><path d="M470.77,280.11a93.06,93.06,0,0,1-15.68,2.77L447,263.82s-5.92-19.28-9.86-24.75c0,0,5.91,1.75,13.14,21.9C450.27,261,454.69,278.66,470.77,280.11Z"/></g><g opacity="0.2"><path d="M467.58,275s12.64-5.91,16.28-14l2.34,5S482.91,273.9,467.58,275Z" fill="#fff"/></g><g opacity="0.2"><path d="M495,228.77a27,27,0,0,1-14.9,2.85c-2.84-3.94-7.72-11.59-7.72-11.59,12.5,9.37,22.11,5.32,22.65,5.08C495.06,227.32,495,228.77,495,228.77Z"/></g><path d="M433.08,268.16l11.64,24.38a9.5,9.5,0,0,0,4.7,4.59l39,17.51s3.06,8.76,15.11,3.94c0,0,.88-1.75,6.79,0,0,0,8,2,14.09-3.62a2.69,2.69,0,0,0-.8-4.45c-4-1.65-12.09-3.79-26.75-2.89a5.68,5.68,0,0,1-3.4-.86l-38.34-23.88L447,263.82S442.21,268.19,433.08,268.16Z" fill="#e2bcbc"/><path d="M490.06,207.55,553,179.44a7.58,7.58,0,0,0,2.39-1.69c2.7-2.83,9.9-10.42,12.55-13.59,0,0,1.58-3.4,2.65-6.5a.3.3,0,0,1,.58.13l-2.36,26.52-7.27.91a7.47,7.47,0,0,0-2.79.92l-63.9,36S493.7,212,490.06,207.55Z" fill="#e2bcbc"/><path d="M575.35,161.75l-1.05,13a1.44,1.44,0,0,1-.48,1l-3.31,3a.8.8,0,0,1-1.34-.6v-5.41a7.72,7.72,0,0,1,1.52-4.61Z" fill="#e89798"/><ellipse cx="619.48" cy="285.72" rx="4.05" ry="5.48" fill="#e2bcbc"/><path d="M649.82,346.4c-5.65,11.16-11.89,18-16.1,21.83a8.73,8.73,0,0,1-9.84,1.26l-9.11-4.69c-.34,13.58-8.72,32.7-12.14,40-.2.42-.39.85-.58,1.28a42.44,42.44,0,0,0-1.59,4.47c-3.45,11.62-9.3,14.24-14,14.19a12,12,0,0,1-2.94-.41,12.71,12.71,0,0,1-6.16-3.79L566,407.8a3.6,3.6,0,0,1,0-4.86c4.26-4.55,13.55-14.95,19.79-25.28a33.42,33.42,0,0,0,4.76-16.84l.29-21.05a15.52,15.52,0,0,1,2.49-8.23,28.43,28.43,0,0,1,14.44-11.21s14,8.25,8.4,17.82l8.08,8.16a13.83,13.83,0,0,0,6.94-7.58,30.15,30.15,0,0,0,18.62,7.67Z" fill="#4dabea"/><g opacity="0.2"><path d="M614.77,364.8l-19.93-13.36,19.44,18.73S614.55,367.87,614.77,364.8Z"/></g><g opacity="0.2"><path d="M624.26,346.31a66.12,66.12,0,0,1,1.9,12.36,35.7,35.7,0,0,0,.88-14.14Z"/></g><g opacity="0.2"><polygon points="616.18 338.14 609.74 331.29 616.95 336.52 616.18 338.14"/></g><g opacity="0.2"><path d="M602.05,406.05a42.44,42.44,0,0,0-1.59,4.47c-3.45,11.62-9.3,14.24-14,14.19a12,12,0,0,1-2.94-.41l-4.47-10.44S592.62,419.49,602.05,406.05Z"/></g><path d="M612.09,315.28s-1.26-1.52-3,2l-1.3,3.06s9.62,6.57,9.62,12.93c0,0,3.73-13.58,6.79-5.48l2.85,6.35L625.51,323l-1.37-2.3a1.86,1.86,0,0,0-1.77-.88l-5.41.55Z" fill="#4048ed"/><path d="M624.26,304l2.19,4.19a4.14,4.14,0,0,1,.48,1.95V323s6.9,1.32,9.09,3.73C636,326.69,637,303.53,624.26,304Z" fill="#4048ed"/><path d="M631.2,338.73s-.84-3.06,1.66-4.6c0,0-.12-7,4.26-4.82a20.53,20.53,0,0,0,13,4.82,1.93,1.93,0,0,1,1.2.45c1,.81,2.34,2.79-.67,6.41,0,0,2.21,3.22-.86,5.41A30.09,30.09,0,0,1,631.2,338.73Z" fill="#4048ed"/><ellipse cx="340.89" cy="367.55" rx="13.61" ry="20.75" transform="translate(-147.86 479) rotate(-60)" fill="#e2bcbc"/><path d="M326.44,350.87s1.53-8.21,13-3.41a10.79,10.79,0,0,1,6.25,6.94c0,.13.07.26.1.39a26.58,26.58,0,0,0-9.25-2.64s-2.41,1.35,1.53,4.64c0,0,3.07,3.72,2.63,6.57,0,0-1.75-5-4.38-4.82,0,0-1.09.44.88,2.63,0,0,4.73,5.47-3,12.26l2.93,7.49s2.48,4.34-1.69,5.88c0,0-.65-3.73-7.88-3.29,0,0-11.17,1.75-9.64-10.95,0,0-3.5-1.1-2.85,5.69,0,0-6.57-3.5-1.09-15.33C314,362.92,318.34,347.59,326.44,350.87Z" fill="#100720"/><ellipse cx="331.7" cy="377.27" rx="4.71" ry="6.79" transform="translate(-136.88 558.33) rotate(-69.8)" fill="#e2bcbc"/><path d="M440.13,380.23,422,405.2c-11.83,16.42-46.22,15.33-46.22,15.33,8.54,30-3.51,76.23-3.51,76.23-16.86-9.64-49.94-5-49.94-5,12.49-14.46,13.58-24.75,14.9-39.43s-12.93-29.79-12.93-29.79c-13.36-15.77,8.11-24.53,8.11-24.53,15.55-8.76,37.45-3.29,37.45-3.29l20.81,2.41a32.45,32.45,0,0,0,6.21-.41,17.9,17.9,0,0,0,6.74-2.36c.28-.18.42-.29.42-.29,8.76-6.14,21.46-19.5,21.46-19.5C429.61,378.91,440.13,380.23,440.13,380.23Z" fill="#4048ed"/><g opacity="0.2"><path d="M375.73,420.53s-11.61-.88-16.21-3.51c0,0,8,9.32,17.9,10.14C377.42,427.16,376.39,423.16,375.73,420.53Z" fill="#fff"/></g><g opacity="0.2"><path d="M405.74,403.44a43.22,43.22,0,0,0-8.88-6.59l0-.17a17.9,17.9,0,0,0,6.74-2.36A20.18,20.18,0,0,1,405.74,403.44Z" fill="#fff"/></g><g opacity="0.2"><path d="M376.37,475s-3.05,9-12,12.09l7.88,9.64S375.48,484,376.37,475Z" fill="#fff"/></g><polygon points="352.79 257.19 181.38 257.19 181.38 155.49 182.38 155.49 182.38 256.19 351.79 256.19 351.79 155.05 352.79 155.05 352.79 257.19" fill="#4dabea"/><path d="M352.29,214.63c-21.52-3.65-39.61,5.23-45.73,9.07a21.16,21.16,0,0,1-11.19,3.3c-7.14,0-11-3.61-11-3.61-16.57-15.23-24.82-8-27.8-3.67-1.82,2.61-3.73,5.16-5.8,7.58L245,234.12c-9.66,9.84-18.37-.3-21.63-5.05a15,15,0,0,0-6-5.18c-20.61-9.57-35.42,32.8-35.42,32.8H352.29Z" fill="#4048ed"/><polygon points="217.8 370.65 109.75 370.65 109.75 302.25 110.75 302.25 110.75 369.65 217.8 369.65 217.8 370.65" fill="#100720"/><polygon points="215.96 373.35 215.25 372.64 217.74 370.16 214.83 367.45 215.51 366.72 219.18 370.14 215.96 373.35" fill="#100720"/><polygon points="107.55 305.87 106.82 305.19 110.24 301.53 113.45 304.74 112.74 305.45 110.26 302.97 107.55 305.87" fill="#100720"/><path d="M118.93,349.42c-1.45,0-2.28,0-2.34,0l0-1c.58,0,58.19,1.29,84.89-19.17l.61.79C178.23,348.32,130.09,349.42,118.93,349.42Z" fill="#100720"/><polygon points="202.31 334.94 201.31 334.83 201.9 329.69 196.11 329.69 196.11 328.69 203.03 328.69 202.31 334.94" fill="#100720"/><g opacity="0.2"><polygon points="125.36 280.56 85.73 359.62 85.94 385.26 142.41 280.66 125.36 280.56" fill="#fff"/></g><g opacity="0.2"><polygon points="166.47 280.83 125.66 385.46 163.8 385.46 206.77 280.89 166.47 280.83" fill="#fff"/></g><g opacity="0.2"><polygon points="197.38 385.47 216.91 385.28 240.38 324.26 240.14 283.63 197.38 385.47" fill="#fff"/></g></svg>